<svg id="Capa_1" enable-background="new 0 0 512.001 512.001" height="512" viewBox="0 0 512.001 512.001" width="512" xmlns="http://www.w3.org/2000/svg"><g><path d="m406 151.001c8.284 0 15-6.716 15-15 0-24.813 20.187-45 45-45 8.284 0 15-6.716 15-15s-6.716-15-15-15c-24.393 0-45-21.065-45-46 0-8.284-6.716-15-15-15s-15 6.716-15 15c0 24.935-20.607 46-45 46-8.284 0-15 6.716-15 15s6.716 15 15 15c24.813 0 45 20.187 45 45 0 8.284 6.716 15 15 15zm-15.253-75.15c5.784-4.41 10.865-9.568 15.253-15.479 4.387 5.91 9.468 11.069 15.253 15.479-5.781 4.312-10.922 9.437-15.253 15.203-4.331-5.767-9.472-10.891-15.253-15.203z"/><path d="m301 106.001c0-8.284-6.716-15-15-15s-15 6.716-15 15c0 41.355-33.645 75-75 75-8.284 0-15 6.716-15 15s6.716 15 15 15c41.355 0 75 33.645 75 75 0 8.284 6.716 15 15 15s15-6.716 15-15c0-41.355 33.645-75 75-75 8.284 0 15-6.716 15-15s-6.716-15-15-15c-41.355 0-75-33.645-75-75zm-15 125.972c-8.871-14.722-21.25-27.101-35.971-35.972 14.722-8.871 27.1-21.25 35.971-35.972 8.871 14.722 21.25 27.101 35.971 35.972-14.721 8.871-27.1 21.249-35.971 35.972z"/><path d="m256 512.001c128.638 0 238.83-96.522 255.862-221.298.946-6.93-3.022-13.593-9.566-16.063-6.542-2.469-13.924-.09-17.793 5.737-33.016 49.73-91.835 80.624-153.503 80.624-99.252 0-180-80.748-180-180 0-61.668 30.893-120.487 80.624-153.503 5.826-3.868 8.207-11.25 5.737-17.793-2.469-6.543-9.131-10.511-16.063-9.566-124.939 17.055-221.298 127.397-221.298 255.862 0 140.959 115.05 256 256 256zm-87.774-466.347c-29.922 37.658-47.226 85.737-47.226 135.347 0 115.794 94.206 210 210 210 49.61 0 97.688-17.304 135.347-47.226-34.932 81.747-117.091 138.226-210.347 138.226-124.617 0-226-101.383-226-226 0-93.256 56.479-175.415 138.226-210.347z"/></g></svg>