<svg id="Capa_1" enable-background="new 0 0 512 512" height="512" viewBox="0 0 512 512" width="512" xmlns="http://www.w3.org/2000/svg"><g id="XMLID_49_"><g id="XMLID_271_"><path id="XMLID_275_" d="m509.625 252.592c-2.743-3.234-7.229-4.385-11.189-2.874-4.257 1.624-8.751 2.448-13.357 2.448-11.677 0-22.482-5.302-29.646-14.546-.191-.246-.393-.483-.606-.711-14.741-17.27-36.179-27.165-58.879-27.165-8.083 0-15.949 1.219-23.497 3.629-2.592-7.058-5.815-13.813-9.589-20.206 2.457-10.275 7.684-19.624 15.222-27.162 6.71-6.71 15.002-11.685 23.984-14.389 9.303-2.664 17.87-7.722 24.777-14.628 14.403-14.403 20.127-35.599 14.939-55.316-1.079-4.101-4.627-7.075-8.854-7.422-4.229-.348-8.212 2.011-9.944 5.881-1.861 4.159-4.457 7.918-7.714 11.175-8.256 8.257-19.645 12.149-31.248 10.678-.309-.04-.619-.064-.93-.074-22.636-1.787-44.792 6.373-60.844 22.425-5.719 5.72-10.4 12.164-14.034 19.212-6.736-3.14-13.794-5.699-21.117-7.597-5.505-8.989-8.408-19.274-8.408-29.912 0-9.492 2.347-18.875 6.787-27.137 4.694-8.463 7.174-18.095 7.174-27.861 0-20.369-10.94-39.405-28.55-49.678-3.663-2.136-8.275-1.73-11.509 1.012-3.233 2.744-4.385 7.228-2.874 11.19 1.624 4.257 2.448 8.751 2.448 13.357 0 11.677-5.302 22.482-14.546 29.646-.246.191-.483.393-.711.606-17.27 14.741-27.165 36.179-27.165 58.879 0 8.083 1.219 15.949 3.629 23.497-7.058 2.592-13.813 5.815-20.206 9.589-10.275-2.457-19.624-7.684-27.162-15.222-6.71-6.71-11.685-15.002-14.389-23.984-2.664-9.303-7.722-17.87-14.628-24.777-14.403-14.402-35.598-20.127-55.316-14.939-4.101 1.079-7.075 4.627-7.422 8.854-.346 4.227 2.011 8.212 5.881 9.944 4.159 1.861 7.918 4.457 11.175 7.714 8.257 8.256 12.148 19.646 10.678 31.248-.04.309-.064.62-.074.93-1.788 22.635 6.373 44.792 22.425 60.844 5.72 5.719 12.164 10.4 19.212 14.034-3.14 6.736-5.699 13.794-7.597 21.117-8.989 5.505-19.274 8.408-29.912 8.408-9.492 0-18.875-2.347-27.137-6.787-8.463-4.694-18.095-7.174-27.861-7.174-20.369 0-39.405 10.94-49.678 28.55-2.137 3.663-1.731 8.275 1.012 11.509 2.744 3.234 7.229 4.383 11.19 2.874 4.257-1.624 8.751-2.448 13.357-2.448 11.677 0 22.482 5.302 29.646 14.546.191.246.393.483.606.711 14.741 17.27 36.179 27.165 58.879 27.165 8.083 0 15.949-1.219 23.497-3.629 2.592 7.058 5.815 13.813 9.589 20.206-2.457 10.275-7.684 19.624-15.222 27.162-6.71 6.71-15.002 11.685-23.984 14.389-9.303 2.664-17.87 7.722-24.777 14.628-14.403 14.403-20.127 35.599-14.939 55.316 1.079 4.101 4.627 7.075 8.854 7.422.275.022.548.033.82.033 3.915 0 7.504-2.295 9.124-5.915 1.861-4.159 4.457-7.918 7.714-11.175 8.257-8.256 19.648-12.145 31.248-10.678.309.04.619.064.93.074 2.055.162 4.101.243 6.143.243 20.459-.001 40.105-8.073 54.701-22.667 5.719-5.72 10.4-12.164 14.034-19.212 6.736 3.14 13.794 5.699 21.117 7.597 5.505 8.989 8.408 19.274 8.408 29.912 0 9.492-2.347 18.875-6.787 27.137-4.694 8.463-7.174 18.095-7.174 27.861 0 20.369 10.94 39.405 28.55 49.678 1.566.914 3.306 1.362 5.037 1.362 2.318 0 4.621-.805 6.472-2.375 3.233-2.744 4.385-7.228 2.874-11.19-1.624-4.257-2.448-8.751-2.448-13.357 0-11.677 5.302-22.482 14.546-29.646.246-.191.483-.393.711-.606 17.27-14.741 27.165-36.179 27.165-58.879 0-8.083-1.219-15.949-3.629-23.497 7.058-2.592 13.813-5.815 20.206-9.589 10.275 2.457 19.624 7.684 27.162 15.222 6.71 6.71 11.685 15.002 14.389 23.984 2.664 9.303 7.722 17.87 14.628 24.777 10.892 10.892 25.667 16.821 40.751 16.82 4.862 0 9.758-.617 14.565-1.881 4.101-1.079 7.075-4.627 7.422-8.854.346-4.227-2.011-8.212-5.881-9.944-4.159-1.861-7.918-4.457-11.175-7.714-8.257-8.256-12.148-19.646-10.678-31.248.04-.309.064-.62.074-.93 1.788-22.635-6.373-44.792-22.425-60.844-5.72-5.719-12.164-10.4-19.212-14.034 3.14-6.735 5.698-13.793 7.596-21.116 5.943-3.644 12.417-6.145 19.286-7.429 5.429-1.015 9.006-6.239 7.991-11.668s-6.236-9.009-11.668-7.991c-4.067.761-8.029 1.845-11.875 3.225.139-2.395.217-4.807.217-7.236 0-7.969-.765-15.762-2.208-23.317 5.816-1.943 11.894-2.938 18.156-2.938 16.927 0 32.91 7.422 43.85 20.364.043.052.088.104.133.154 8.818 11.184 21.15 18.532 34.854 20.991-2.323 2.979-2.849 7.153-1.006 10.732 1.774 3.446 5.273 5.424 8.899 5.424 1.541 0 3.105-.357 4.57-1.111 9.764-5.028 17.853-12.705 23.391-22.199 2.136-3.661 1.73-8.273-1.014-11.507zm-249.378 107.314c-27.743-1.122-53.826-12.546-73.48-32.201-33.613-33.613-33.613-88.306 0-121.918 26.11-26.111 68.596-26.111 94.706 0 20.109 20.108 20.109 52.828 0 72.937-15.307 15.308-40.214 15.308-55.521 0-5.555-5.554-8.613-12.939-8.613-20.794s3.059-15.24 8.613-20.794c3.905-3.905 3.905-10.237 0-14.142-3.905-3.904-10.237-3.904-14.143 0-19.264 19.264-19.264 50.609 0 69.873 23.105 23.104 60.7 23.104 83.806 0 27.907-27.907 27.907-73.314 0-101.222-31.545-31.544-81.482-33.726-115.593-6.581 18.996-20.331 46.026-33.064 75.978-33.064 57.346 0 104 46.654 104 104 0 55.923-44.37 101.67-99.753 103.906zm76.145-221.429c11.969-11.97 28.517-18.019 45.407-16.607.067.006.135.011.203.015 13.366 1.582 26.528-1.479 37.581-8.531-1.759 3.465-4.064 6.677-6.878 9.491-4.524 4.523-10.122 7.828-16.187 9.557-.044.013-.087.025-.131.038-12.166 3.647-23.385 10.363-32.444 19.422-6.391 6.392-11.543 13.756-15.32 21.789-6.802-7.642-14.529-14.443-23.011-20.217 2.739-5.503 6.342-10.519 10.78-14.957zm-106.647-22.424c0-16.927 7.422-32.91 20.364-43.85.052-.043.104-.088.154-.133 10.569-8.333 17.712-19.804 20.541-32.605 1.207 3.694 1.847 7.595 1.847 11.575 0 6.396-1.621 12.691-4.688 18.204-.022.04-.044.08-.065.119-6.023 11.181-9.208 23.863-9.208 36.675 0 9.017 1.557 17.847 4.551 26.179-2.397-.139-4.81-.217-7.241-.217-7.969 0-15.762.765-23.317 2.208-1.943-5.816-2.938-11.894-2.938-18.155zm-91.268 59.555c-11.97-11.97-18.022-28.52-16.607-45.407.006-.067.011-.135.015-.203 1.582-13.367-1.479-26.527-8.53-37.58 3.464 1.758 6.677 4.064 9.491 6.878 4.523 4.524 7.828 10.122 9.557 16.187.013.044.025.087.038.131 3.647 12.166 10.363 23.385 19.422 32.444 6.392 6.391 13.756 11.543 21.789 15.32-7.642 6.802-14.443 14.529-20.217 23.011-5.504-2.741-10.52-6.343-14.958-10.781zm-22.424 106.647c-16.927 0-32.91-7.422-43.85-20.364-.043-.052-.088-.104-.133-.154-8.333-10.569-19.804-17.712-32.605-20.541 3.694-1.207 7.595-1.847 11.575-1.847 6.396 0 12.691 1.621 18.204 4.688.04.022.08.044.119.065 11.181 6.023 23.863 9.208 36.675 9.208 9.017 0 17.847-1.557 26.179-4.551-.139 2.397-.217 4.81-.217 7.241 0 7.969.765 15.762 2.208 23.317-5.815 1.943-11.894 2.938-18.155 2.938zm59.555 91.268c-11.97 11.97-28.52 18.018-45.407 16.607-.067-.006-.135-.011-.203-.015-13.369-1.583-26.528 1.479-37.581 8.531 1.759-3.465 4.064-6.677 6.878-9.491 4.524-4.523 10.122-7.828 16.187-9.557.044-.013.087-.025.131-.038 12.166-3.647 23.385-10.363 32.444-19.422 6.391-6.392 11.543-13.756 15.32-21.789 6.802 7.642 14.529 14.443 23.011 20.217-2.739 5.503-6.342 10.519-10.78 14.957zm106.647 22.424c0 16.927-7.422 32.91-20.364 43.85-.052.043-.104.088-.154.133-10.569 8.333-17.712 19.804-20.541 32.605-1.207-3.694-1.847-7.595-1.847-11.575 0-6.396 1.621-12.691 4.688-18.204.022-.04.044-.08.065-.119 6.023-11.181 9.208-23.863 9.208-36.675 0-9.017-1.557-17.847-4.551-26.179 2.397.139 4.81.217 7.241.217 7.969 0 15.762-.765 23.317-2.208 1.943 5.815 2.938 11.894 2.938 18.155zm91.268-59.556c11.97 11.97 18.022 28.52 16.607 45.407-.006.067-.011.135-.015.203-1.582 13.367 1.479 26.527 8.53 37.58-3.464-1.758-6.677-4.064-9.491-6.878-4.523-4.524-7.828-10.122-9.557-16.187-.013-.044-.025-.087-.038-.131-3.647-12.166-10.363-23.385-19.422-32.444-6.392-6.391-13.756-11.543-21.789-15.32 7.642-6.802 14.443-14.529 20.217-23.011 5.504 2.741 10.52 6.344 14.958 10.781z"/><path id="XMLID_283_" d="m437.89 266.7c-2.63 0-5.2 1.07-7.07 2.93-1.86 1.86-2.93 4.44-2.93 7.07s1.07 5.21 2.93 7.07c1.87 1.86 4.44 2.93 7.07 2.93 2.64 0 5.21-1.07 7.07-2.93 1.87-1.86 2.93-4.44 2.93-7.07s-1.06-5.21-2.93-7.07c-1.86-1.86-4.43-2.93-7.07-2.93z"/></g></g></svg>