<svg height="490pt" viewBox="-6 0 490 490.59634" width="490pt" xmlns="http://www.w3.org/2000/svg"><path d="m58.042969 443.316406c1.5 1.5 3.539062 2.34375 5.660156 2.34375 2.125 0 4.160156-.84375 5.660156-2.34375l196.800781-197.5625 8.191407 51.058594c.546875 3.421875 3.238281 6.101562 6.664062 6.640625.40625.0625.820313.09375 1.230469.09375 3.015625 0 5.773438-1.695313 7.136719-4.382813l36.800781-72.578124 80.382812 12.578124c3.4375.554688 6.84375-1.175781 8.414063-4.285156 1.574219-3.105468.957031-6.875-1.523437-9.316406l-57.648438-57.421875 36.800781-72.578125c1.550781-3.089844.941407-6.828125-1.515625-9.265625-2.453125-2.4375-6.199218-3.019531-9.277344-1.445313l-72.433593 37.085938-57.65625-57.453125c-2.453125-2.445313-6.207031-3.03125-9.289063-1.453125-3.085937 1.578125-4.800781 4.964844-4.253906 8.386719l12.878906 80.351562-72.445312 37.082031c-3.085938 1.578126-4.804688 4.960938-4.257813 8.382813s3.234375 6.101563 6.65625 6.640625l51.082031 8-196.800781 197.601562c-3.125 3.121094-3.125 8.1875 0 11.3125zm185.945312-198.007812-11.3125-11.3125 19-19.074219 9.769531 1.53125 1.597657 9.757813zm-36.136719-53.433594 55.679688-28.511719c3.085938-1.578125 4.804688-4.960937 4.257812-8.382812l-9.914062-61.777344 44.320312 44.152344c2.457032 2.453125 6.214844 3.039062 9.304688 1.457031l55.6875-28.519531-28.296875 55.796875c-1.566406 3.09375-.96875 6.84375 1.488281 9.289062l44.328125 44.152344-61.816406-9.664062c-3.425781-.550782-6.8125 1.183593-8.367187 4.289062l-28.296876 55.800781-9.910156-61.777343c-.546875-3.425782-3.238281-6.105469-6.664062-6.640626zm13.535157 53.457031 11.3125 11.3125-140.800781 141.351563-11.335938-11.289063zm-152.117188 152.710938 11.335938 11.296875-16.9375 17-11.335938-11.296875zm0 0"/><path d="m57.019531 2.257812c-3.464843 0-6.535156 2.234376-7.609375 5.53125l-9.703125 29.863282h-31.40625c-3.46875 0-6.539062 2.230468-7.609375 5.527344-1.074218 3.296874.101563 6.90625 2.902344 8.945312l25.425781 18.453125-9.71875 29.875c-1.074219 3.292969.101563 6.90625 2.90625 8.945313 2.804688 2.035156 6.601563 2.035156 9.40625-.003907l25.40625-18.464843 25.40625 18.464843c2.804688 2.039063 6.601563 2.039063 9.40625.003907 2.804688-2.039063 3.980469-5.652344 2.90625-8.945313l-9.71875-29.875 25.40625-18.453125c2.804688-2.039062 3.976563-5.644531 2.910157-8.9375-1.066407-3.296875-4.132813-5.53125-7.597657-5.535156h-31.40625l-9.703125-29.863282c-1.070312-3.296874-4.144531-5.53125-7.609375-5.53125zm24.097657 51.394532-10.195313 7.398437c-2.800781 2.039063-3.972656 5.648438-2.902344 8.945313l3.886719 12-10.183594-7.410156c-2.804687-2.039063-6.601562-2.039063-9.40625 0l-10.183594 7.410156 3.886719-12c1.070313-3.296875-.101562-6.90625-2.902343-8.945313l-10.195313-7.398437h12.59375c3.46875.003906 6.542969-2.230469 7.617187-5.527344l3.886719-11.976562 3.886719 12c1.082031 3.285156 4.148438 5.507812 7.609375 5.503906zm0 0"/><path d="m411.523438 403.179688c-1.070313-3.296876-4.140626-5.527344-7.609376-5.527344h-44.183593l-13.648438-42.023438c-1.078125-3.285156-4.140625-5.503906-7.597656-5.503906s-6.523437 2.21875-7.601563 5.503906l-13.679687 42.023438h-44.183594c-3.464843 0-6.539062 2.230468-7.609375 5.527344-1.070312 3.296874.101563 6.90625 2.90625 8.945312l35.75 25.972656-13.65625 42.027344c-1.070312 3.292969.101563 6.90625 2.90625 8.945312 2.804688 2.035157 6.601563 2.035157 9.40625-.003906l35.753906-25.976562 35.734376 25.976562c2.804687 2.039063 6.601562 2.039063 9.40625.003906 2.804687-2.039062 3.976562-5.652343 2.90625-8.945312l-13.648438-42.027344 35.746094-25.972656c2.800781-2.039062 3.972656-5.648438 2.902344-8.945312zm-52.75 25.390624c-2.808594 2.035157-3.984376 5.648438-2.914063 8.945313l7.839844 24.136719-20.519531-14.921875c-2.804688-2.039063-6.601563-2.039063-9.40625 0l-20.539063 14.921875 7.847656-24.136719c1.074219-3.296875-.097656-6.90625-2.902343-8.945313l-20.535157-14.917968h25.375c3.464844 0 6.539063-2.234375 7.609375-5.527344l7.847656-24.136719 7.832032 24.136719c1.070312 3.292969 4.140625 5.527344 7.605468 5.527344h25.386719zm0 0"/><path d="m49.019531 245.652344c22.089844 0 40-17.910156 40-40 0-22.09375-17.910156-40-40-40-22.089843 0-40 17.90625-40 40 .027344 22.078125 17.917969 39.972656 40 40zm0-64c13.253907 0 24 10.746094 24 24s-10.746093 24-24 24c-13.253906 0-24-10.746094-24-24s10.746094-24 24-24zm0 0"/><path d="m449.019531 301.652344c0-17.675782-14.328125-32-32-32s-32 14.324218-32 32c0 17.671875 14.328125 32 32 32s32-14.328125 32-32zm-48 0c0-8.835938 7.164063-16 16-16 8.835938 0 16 7.164062 16 16 0 8.835937-7.164062 16-16 16-8.835937 0-16-7.164063-16-16zm0 0"/><path d="m305.019531 5.652344h16v48h-16zm0 0"/><path d="m419.359375 48 48-48 11.3125 11.3125-48 48zm0 0"/><path d="m425.019531 157.652344h48v16h-48zm0 0"/></svg>