<svg fill="#000000" xmlns="http://www.w3.org/2000/svg"  viewBox="0 0 50 50" width="50px" height="50px"><path d="M 25 2 C 12.308594 2 2 12.308594 2 25 C 2 34.832031 8.183594 43.246094 16.875 46.53125 C 17.394531 46.71875 17.964844 46.453125 18.15625 45.9375 L 23.125 32.84375 C 23.226563 32.589844 23.21875 32.308594 23.105469 32.0625 C 22.996094 31.8125 22.789063 31.621094 22.53125 31.53125 C 19.886719 30.53125 18 28.003906 18 25 C 18 21.121094 21.121094 18 25 18 C 28.878906 18 32 21.121094 32 25 C 32 28.003906 30.113281 30.53125 27.46875 31.53125 C 27.210938 31.621094 27.003906 31.8125 26.894531 32.0625 C 26.78125 32.308594 26.773438 32.589844 26.875 32.84375 L 31.84375 45.9375 C 32.035156 46.453125 32.605469 46.71875 33.125 46.53125 C 41.816406 43.246094 48 34.832031 48 25 C 48 12.308594 37.691406 2 25 2 Z M 25 4 C 36.609375 4 46 13.390625 46 25 C 46 33.621094 40.730469 40.917969 33.3125 44.15625 L 29.0625 32.9375 C 31.972656 31.445313 34 28.488281 34 25 C 34 20.042969 29.957031 16 25 16 C 20.042969 16 16 20.042969 16 25 C 16 28.488281 18.027344 31.445313 20.9375 32.9375 L 16.6875 44.15625 C 9.269531 40.917969 4 33.621094 4 25 C 4 13.390625 13.390625 4 25 4 Z"/></svg>