<svg id="Capa_1" enable-background="new 0 0 512 512" height="512" viewBox="0 0 512 512" width="512" xmlns="http://www.w3.org/2000/svg"><g id="XMLID_1631_"><g id="XMLID_321_"><path id="XMLID_347_" d="m462 0h-172.757c-5.523 0-10 4.477-10 10v81.444c0 4.167 2.584 7.898 6.486 9.362 3.899 1.463 8.301.356 11.044-2.783 5.738-6.567 14.037-10.03 22.749-9.519 13.936.827 25.172 11.945 26.137 25.86.545 7.859-2.094 15.337-7.431 21.057-5.343 5.727-12.596 8.88-20.423 8.88-8.052 0-15.718-3.488-21.032-9.569-2.742-3.139-7.144-4.248-11.044-2.783-3.901 1.464-6.486 5.195-6.486 9.362v2.623c-7.136-5.13-15.726-8.357-25.021-8.91-7.492-.445-14.799.83-21.465 3.629v-62.167c0-5.523-4.477-10-10-10h-172.757c-27.57 0-50 22.43-50 50v345.514c0 27.57 22.43 50 50 50h345.514c27.57 0 50-22.43 50-50v-21.378c0-5.523-4.477-10-10-10s-10 4.477-10 10v21.378c0 16.542-13.458 30-30 30h-162.757v-71.444c0-4.167-2.584-7.898-6.486-9.362-3.901-1.466-8.303-.356-11.044 2.783-5.314 6.082-12.98 9.57-21.032 9.57-7.827 0-15.08-3.154-20.423-8.88-5.337-5.72-7.977-13.199-7.432-21.058.965-13.916 12.201-25.033 26.137-25.86 8.71-.516 17.011 2.951 22.75 9.519 2.742 3.138 7.142 4.246 11.044 2.783 3.901-1.464 6.486-5.195 6.486-9.362v-71.444h52.2c-2.446 5.813-3.747 12.115-3.747 18.562 0 13.238 5.553 26.012 15.236 35.046 9.819 9.162 22.633 13.693 36.087 12.761 23.914-1.659 43.019-20.963 44.44-44.904.444-7.492-.829-14.799-3.629-21.465h52.169v51.379c0 5.523 4.477 10 10 10s10-4.477 10-10v-61.379c0-5.523-4.477-10-10-10h-.963c5.785-8.085 8.996-17.868 8.996-27.924 0-6.447-1.301-12.749-3.747-18.562h62.201c5.523 0 10-4.477 10-10v-172.759c0-27.57-22.43-50-50-50zm-442 116.486c0-16.542 13.458-30 30-30h162.757v71.444c0 4.167 2.584 7.898 6.486 9.362 3.898 1.463 8.301.355 11.044-2.783 5.737-6.566 14.033-10.035 22.749-9.519 13.935.828 25.172 11.945 26.137 25.861.545 7.859-2.094 15.337-7.432 21.058-5.343 5.726-12.596 8.88-20.423 8.88-8.052 0-15.718-3.488-21.031-9.569-2.743-3.14-7.145-4.248-11.044-2.783-3.902 1.464-6.486 5.195-6.486 9.362v71.444h-52.201c2.446-5.813 3.747-12.115 3.747-18.562 0-13.238-5.553-26.011-15.236-35.046-9.819-9.161-22.635-13.69-36.085-12.761-23.915 1.659-43.02 20.963-44.441 44.903-.445 7.492.829 14.8 3.628 21.465h-52.169zm171.292 231.297c-23.94 1.421-43.245 20.527-44.903 44.441-.933 13.451 3.599 26.267 12.76 36.085 9.035 9.683 21.809 15.236 35.046 15.236 6.447 0 12.748-1.3 18.562-3.747v52.202h-162.757c-16.542 0-30-13.458-30-30v-162.757h71.444c4.167 0 7.898-2.584 9.362-6.486s.355-8.303-2.783-11.044c-6.567-5.737-10.036-14.029-9.519-22.749.827-13.936 11.945-25.172 25.86-26.137 7.859-.544 15.337 2.094 21.058 7.432 5.726 5.343 8.88 12.596 8.88 20.423 0 8.052-3.488 15.718-9.569 21.031-3.138 2.742-4.247 7.143-2.783 11.044 1.464 3.902 5.195 6.486 9.362 6.486h71.444v52.169c-6.665-2.801-13.973-4.077-21.464-3.629zm156.198-51.009c6.566 5.737 10.036 14.029 9.519 22.749-.827 13.935-11.945 25.171-25.86 26.137-7.858.541-15.338-2.094-21.058-7.432-5.727-5.343-8.88-12.596-8.88-20.423 0-8.052 3.488-15.718 9.569-21.032 3.138-2.742 4.247-7.143 2.783-11.044s-5.195-6.486-9.362-6.486h-71.443v-52.2c5.813 2.446 12.115 3.747 18.562 3.747 10.056 0 19.84-3.211 27.924-8.996v.964c0 5.523 4.477 10 10 10h62.169c-2.8 6.666-4.073 13.973-3.629 21.465.552 9.296 3.779 17.885 8.909 25.021h-2.623c-4.167 0-7.898 2.584-9.362 6.486-1.465 3.901-.356 8.302 2.782 11.044zm144.51-84.017h-71.443c-4.167 0-7.898 2.584-9.362 6.486-1.464 3.901-.355 8.302 2.783 11.044 6.082 5.313 9.569 12.979 9.569 21.031 0 7.827-3.154 15.08-8.88 20.423-5.72 5.337-13.199 7.977-21.058 7.432-13.916-.965-25.033-12.202-25.86-26.137-.518-8.72 2.952-17.012 9.518-22.75 3.138-2.742 4.247-7.143 2.783-11.044s-5.195-6.486-9.362-6.486h-71.443v-52.201c5.813 2.446 12.115 3.747 18.562 3.747 13.238 0 26.012-5.553 35.046-15.236 9.162-9.819 13.693-22.634 12.76-36.085-1.659-23.915-20.963-43.02-44.903-44.441-7.495-.446-14.8.829-21.465 3.629v-52.169h162.755c16.542 0 30 13.458 30 30z"/><path id="XMLID_351_" d="m435.51 385.62c-2.63 0-5.21 1.07-7.07 2.93s-2.93 4.44-2.93 7.07 1.07 5.21 2.93 7.07 4.44 2.93 7.07 2.93 5.21-1.07 7.07-2.93c1.87-1.86 2.93-4.44 2.93-7.07s-1.06-5.21-2.93-7.07c-1.86-1.86-4.43-2.93-7.07-2.93z"/></g></g></svg>