<?xml version="1.0" encoding="UTF-8"?>
<svg xmlns="http://www.w3.org/2000/svg" id="Icons" viewBox="0 0 74 74" width="512" height="512"><path d="M64.711,32.07a1,1,0,0,1-.977-.792A27.31,27.31,0,0,0,42.722,10.266a1,1,0,1,1,.416-1.956A29.31,29.31,0,0,1,65.69,30.862a1,1,0,0,1-.979,1.208Z"/><path d="M31.071,65.712a1,1,0,0,1-.209-.022A29.31,29.31,0,0,1,8.31,43.138a1,1,0,0,1,1.956-.416A27.31,27.31,0,0,0,31.278,63.734a1,1,0,0,1-.207,1.978Z"/><path d="M42.929,65.712a1,1,0,0,1-.207-1.978A27.31,27.31,0,0,0,63.734,42.722a1,1,0,0,1,1.956.416A29.31,29.31,0,0,1,43.138,65.69,1,1,0,0,1,42.929,65.712Z"/><path d="M9.289,32.07a1,1,0,0,1-.979-1.208A29.31,29.31,0,0,1,30.862,8.31a1,1,0,1,1,.416,1.956A27.31,27.31,0,0,0,10.266,31.278,1,1,0,0,1,9.289,32.07Z"/><path d="M65.05,43.95A6.95,6.95,0,1,1,72,37,6.958,6.958,0,0,1,65.05,43.95Zm0-11.9A4.95,4.95,0,1,0,70,37,4.956,4.956,0,0,0,65.05,32.05Z"/><path d="M8.95,43.95A6.95,6.95,0,1,1,15.9,37,6.958,6.958,0,0,1,8.95,43.95Zm0-11.9A4.95,4.95,0,1,0,13.9,37,4.956,4.956,0,0,0,8.95,32.05Z"/><path d="M37,72a6.95,6.95,0,1,1,6.95-6.95A6.958,6.958,0,0,1,37,72Zm0-11.9a4.95,4.95,0,1,0,4.95,4.95A4.956,4.956,0,0,0,37,60.1Z"/><path d="M37,15.9a6.95,6.95,0,1,1,6.95-6.95A6.958,6.958,0,0,1,37,15.9ZM37,4a4.95,4.95,0,1,0,4.95,4.95A4.956,4.956,0,0,0,37,4Z"/><path d="M33.5,55.15a.94.94,0,0,1-.2-.021,18,18,0,0,1-3.112-.932,1,1,0,1,1,.749-1.854,15.982,15.982,0,0,0,2.767.827,1,1,0,0,1-.2,1.98Z"/><path d="M49.979,49.75a1,1,0,0,1-.742-1.669,16.5,16.5,0,1,0-24.474,0,1,1,0,1,1-1.486,1.338,18.5,18.5,0,1,1,27.446,0A1,1,0,0,1,49.979,49.75Z"/><path d="M40.5,55.15a1,1,0,0,1-.193-1.981,16,16,0,0,0,2.758-.82A1,1,0,1,1,43.8,54.21a18.049,18.049,0,0,1-3.1.921A1.006,1.006,0,0,1,40.5,55.15Z"/><path d="M28.643,40.547a3.147,3.147,0,0,1-2.169-.65,2.273,2.273,0,0,1-.756-1.671h.875a1.422,1.422,0,0,0,.639,1.135,2.475,2.475,0,0,0,1.373.367,2.166,2.166,0,0,0,1.229-.313.977.977,0,0,0,.465-.852.868.868,0,0,0-.482-.824,6.959,6.959,0,0,0-1.659-.507,3.84,3.84,0,0,1-1.689-.7,1.489,1.489,0,0,1-.512-1.184,1.675,1.675,0,0,1,.666-1.367,2.758,2.758,0,0,1,1.772-.533,3.025,3.025,0,0,1,1.872.538,1.906,1.906,0,0,1,.753,1.521h-.884q-.136-1.245-1.7-1.245a2.053,2.053,0,0,0-1.174.286.878.878,0,0,0-.417.758.715.715,0,0,0,.335.645,4.216,4.216,0,0,0,1.249.417,11.767,11.767,0,0,1,1.453.4,2.325,2.325,0,0,1,.922.61,1.573,1.573,0,0,1,.384,1.112,1.833,1.833,0,0,1-.7,1.469A2.781,2.781,0,0,1,28.643,40.547Z"/><path d="M28.643,40.8a3.394,3.394,0,0,1-2.337-.714,2.525,2.525,0,0,1-.838-1.848.247.247,0,0,1,.07-.182.25.25,0,0,1,.18-.077h.875a.249.249,0,0,1,.249.228,1.174,1.174,0,0,0,.525.947,2.248,2.248,0,0,0,1.238.328,1.931,1.931,0,0,0,1.089-.272.724.724,0,0,0,.355-.644.623.623,0,0,0-.35-.6,6.787,6.787,0,0,0-1.593-.483,4.026,4.026,0,0,1-1.8-.75,1.737,1.737,0,0,1-.6-1.373,1.917,1.917,0,0,1,.76-1.562A3.008,3.008,0,0,1,28.4,33.2a3.277,3.277,0,0,1,2.022.589A2.149,2.149,0,0,1,31.27,35.5a.25.25,0,0,1-.25.261h-.884a.25.25,0,0,1-.249-.223c-.048-.439-.251-1.022-1.455-1.022a1.837,1.837,0,0,0-1.033.242.628.628,0,0,0-.308.552.467.467,0,0,0,.22.435,3.9,3.9,0,0,0,1.168.383,12,12,0,0,1,1.485.407,2.584,2.584,0,0,1,1.019.675,1.815,1.815,0,0,1,.451,1.282,2.079,2.079,0,0,1-.8,1.662A3.036,3.036,0,0,1,28.643,40.8ZM25.99,38.476a1.968,1.968,0,0,0,.652,1.236,2.927,2.927,0,0,0,2,.585,2.553,2.553,0,0,0,1.677-.527,1.58,1.58,0,0,0,.614-1.277,1.325,1.325,0,0,0-.317-.942,2.1,2.1,0,0,0-.825-.546,11.682,11.682,0,0,0-1.42-.388,4.4,4.4,0,0,1-1.331-.45.968.968,0,0,1-.45-.856,1.134,1.134,0,0,1,.526-.965,2.306,2.306,0,0,1,1.315-.329c1.319,0,1.779.633,1.916,1.245h.4a1.593,1.593,0,0,0-.629-1.072A2.8,2.8,0,0,0,28.4,33.7a2.52,2.52,0,0,0-1.615.479,1.421,1.421,0,0,0-.573,1.171,1.24,1.24,0,0,0,.426.995,3.619,3.619,0,0,0,1.577.639,7.039,7.039,0,0,1,1.725.532,1.119,1.119,0,0,1,.614,1.044,1.234,1.234,0,0,1-.575,1.059,2.422,2.422,0,0,1-1.369.357,2.734,2.734,0,0,1-1.509-.408,1.61,1.61,0,0,1-.72-1.095Z"/><path d="M39.16,40.43H34.045V33.57H39v.814H34.953v2.1h3.786V37.3H34.953v2.321H39.16Z"/><path d="M39.16,40.68H34.045a.25.25,0,0,1-.25-.25V33.57a.25.25,0,0,1,.25-.25H39a.249.249,0,0,1,.25.25v.814a.249.249,0,0,1-.25.25H35.2v1.6h3.535a.25.25,0,0,1,.25.25V37.3a.25.25,0,0,1-.25.25H35.2v1.821H39.16a.25.25,0,0,1,.25.25v.814A.25.25,0,0,1,39.16,40.68Zm-4.865-.5H38.91v-.314H34.953a.249.249,0,0,1-.25-.25V37.3a.249.249,0,0,1,.25-.25h3.535V36.73H34.953a.249.249,0,0,1-.25-.25v-2.1a.249.249,0,0,1,.25-.25h3.8V33.82H34.3Z"/><path d="M45.006,33.453a3.1,3.1,0,0,1,2.359.973,4.071,4.071,0,0,1,0,5.148,3.355,3.355,0,0,1-4.727,0,4.051,4.051,0,0,1,0-5.146A3.117,3.117,0,0,1,45.006,33.453ZM45,39.77a2.167,2.167,0,0,0,1.687-.73,3.5,3.5,0,0,0,0-4.08,2.143,2.143,0,0,0-1.67-.73,2.188,2.188,0,0,0-1.7.73,3.475,3.475,0,0,0,0,4.078A2.162,2.162,0,0,0,45,39.77Z"/><path d="M45.006,40.8a3.366,3.366,0,0,1-2.549-1.054,4.3,4.3,0,0,1,0-5.489,3.606,3.606,0,0,1,5.09,0,4.317,4.317,0,0,1,0,5.49A3.352,3.352,0,0,1,45.006,40.8Zm0-7.094a2.854,2.854,0,0,0-2.186.895,3.8,3.8,0,0,0,0,4.8,3.1,3.1,0,0,0,4.363,0,3.822,3.822,0,0,0,0-4.8A2.835,2.835,0,0,0,45.006,33.7ZM45,40.021a2.415,2.415,0,0,1-1.866-.815,3.72,3.72,0,0,1,0-4.414,2.435,2.435,0,0,1,1.882-.813,2.4,2.4,0,0,1,1.856.813,3.746,3.746,0,0,1,0,4.416A2.421,2.421,0,0,1,45,40.021Zm.019-5.542a1.935,1.935,0,0,0-1.512.648,3.238,3.238,0,0,0,0,3.744,2.054,2.054,0,0,0,3,0,3.263,3.263,0,0,0,0-3.747A1.89,1.89,0,0,0,45.016,34.479Z"/></svg>
