<?xml version="1.0" encoding="UTF-8"?>
<svg xmlns="http://www.w3.org/2000/svg" width="65px" height="65px" xmlns:xlink="http://www.w3.org/1999/xlink"
    clipboard-id="document_1tawlzx">
    <defs>

    </defs>
    <g clip-path="url(#clip2)" transform="matrix(1 0 0 1 -36.8927 -36.9687)">
        <g clip-path="url(#clip3)" transform="matrix(1 0 0 1 0.0000059355 -0.00000888563)">

            <path style=""
                d="M 118.42186737060547 73.81249237060547 L 67.69139862060547 114.89453887939453 L 27.550779342651367 65.328125 L 78.28515625 24.24609375 L 118.42186737060547 73.81249237060547 Z M 92.73827362060547 89.78516387939453 C 92.06640625 90.328125 91.37499237060547 90.83594512939453 90.65624237060547 91.30858612060547 C 89.93749237060547 91.78124237060547 89.19921875 92.21875 88.43749237060547 92.6171875 C 87.67578125 93.01952362060547 86.89842987060547 93.38279724121094 86.10155487060547 93.70311737060547 C 85.30467987060547 94.02733612060547 84.49217987060547 94.31249237060547 83.66796112060547 94.55858612060547 C 82.84374237060547 94.80078125 82.00780487060547 95.00389862060547 81.16405487060547 95.16796875 C 80.32030487060547 95.32813262939453 79.46875 95.44921875 78.61327362060547 95.52733612060547 C 77.75389862060547 95.60546112060547 76.89842987060547 95.64453125 76.0390625 95.63671875 C 75.17577362060547 95.63280487060547 74.3203125 95.58592987060547 73.46483612060547 95.49609375 C 72.60936737060547 95.40624237060547 71.75780487060547 95.2734375 70.91796112060547 95.1015625 C 70.07421112060547 94.92578125 69.24217987060547 94.71092987060547 68.421875 94.45702362060547 C 67.60155487060547 94.20311737060547 66.79296112060547 93.90625 66 93.57421875 C 65.20702362060547 93.23826599121094 64.43359375 92.86717987060547 63.679683685302734 92.45703125 C 62.921871185302734 92.046875 62.1874885559082 91.59764862060547 61.476558685302734 91.11717987060547 C 60.765621185302734 90.6328125 60.078121185302734 90.11717987060547 59.414058685302734 89.56641387939453 C 58.7538948059082 89.01953125 58.121089935302734 88.43749237060547 57.519527435302734 87.82421875 C 56.914066314697266 87.2109375 56.33983612060547 86.57421112060547 55.80077362060547 85.90235137939453 C 55.257808685302734 85.234375 54.75 84.54296875 54.277339935302734 83.82421875 C 53.8046875 83.10546112060547 53.367183685302734 82.3671875 52.968746185302734 81.60546112060547 C 52.566410064697266 80.84375762939453 52.203125 80.06250762939453 51.878902435302734 79.265625 C 51.5546875 78.47265625 51.273433685302734 77.66015625 51.027339935302734 76.8359375 C 50.785152435302734 76.01171875 50.582027435302734 75.17578887939453 50.417964935302734 74.33202362060547 C 50.257808685302734 73.48827362060547 50.136714935302734 72.63672637939453 50.05859375 71.78125762939453 C 49.976558685302734 70.921875 49.94140625 70.06640625 49.945308685302734 69.203125 C 49.953121185302734 68.34375 49.999996185302734 67.48828125 50.089839935302734 66.6328125 C 50.179683685302734 65.77734375 50.312496185302734 64.92578125 50.484371185302734 64.0859375 C 50.660152435302734 63.242183685302734 50.871089935302734 62.41015625 51.128902435302734 61.58984375 C 51.382808685302734 60.765625 51.675777435302734 59.960933685302734 52.01171112060547 59.167964935302734 C 52.34764862060547 58.375 52.718746185302734 57.6015625 53.128902435302734 56.843746185302734 C 53.5390625 56.089839935302734 53.984375 55.35546875 54.468746185302734 54.644527435302734 C 54.953125 53.929691314697266 55.468746185302734 53.24609375 56.015621185302734 52.582027435302734 C 56.566402435302734 51.921875 57.14842987060547 51.2890625 57.76171875 50.68358612060547 C 58.371089935302734 50.08203125 59.011714935302734 49.5078125 59.679683685302734 48.964839935302734 C 60.351558685302734 48.42578125 61.04296112060547 47.917964935302734 61.76171875 47.4453125 C 62.480464935302734 46.97265625 63.218746185302734 46.53515625 63.980464935302734 46.1328125 C 64.74217987060547 45.734378814697266 65.51952362060547 45.371089935302734 66.31640625 45.046875 C 67.11328125 44.722652435302734 67.92577362060547 44.441410064697266 68.74999237060547 44.195316314697266 C 69.57421112060547 43.949214935302734 70.41015625 43.74609375 71.25390625 43.585941314697266 C 72.09764862060547 43.421871185302734 72.94921112060547 43.300777435302734 73.8046875 43.22265625 C 74.6640625 43.14453125 75.51953125 43.109375 76.3828125 43.113277435302734 C 77.2421875 43.121097564697266 78.09764862060547 43.16796875 78.95311737060547 43.257808685302734 C 79.80859375 43.34765625 80.66014862060547 43.48046875 81.49999237060547 43.652339935302734 C 82.34374237060547 43.824214935302734 83.17578125 44.0390625 83.99608612060547 44.296875 C 84.82030487060547 44.550785064697266 85.62499237060547 44.84375 86.41796112060547 45.179683685302734 C 87.2109375 45.51171875 87.98436737060547 45.88671875 88.74217987060547 46.296878814697266 C 89.49608612060547 46.707027435302734 90.23046112060547 47.152347564697266 90.94139862060547 47.63671875 C 91.65625 48.117191314697266 92.33983612060547 48.63280487060547 93.00389862060547 49.18359375 C 93.6640625 49.734371185302734 94.29686737060547 50.316402435302734 94.90233612060547 50.929683685302734 C 95.50389862060547 51.539058685302734 96.07811737060547 52.1796875 96.61717987060547 52.847652435302734 C 97.16015625 53.515628814697266 97.66796112060547 54.210933685302734 98.14061737060547 54.9296875 C 98.61327362060547 55.6484375 99.05077362060547 56.386714935302734 99.453125 57.1484375 C 99.85155487060547 57.910152435302734 100.21483612060547 58.687496185302734 100.53905487060547 59.48436737060547 C 100.86328125 60.281253814697266 101.14452362060547 61.09375 101.390625 61.917972564697266 C 101.6328125 62.742183685302734 101.83592987060547 63.578125 102 64.421875 C 102.16405487060547 65.265625 102.28124237060547 66.1171875 102.36328125 66.97265625 C 102.44140625 67.828125 102.47655487060547 68.6875 102.47264862060547 69.546875 C 102.46482849121094 70.41015625 102.41796112060547 71.265625 102.328125 72.12109375 C 102.23827362060547 72.9765625 102.10546875 73.82421112060547 101.93358612060547 74.66796112060547 C 101.75780487060547 75.51171875 101.54686737060547 76.34375 101.2890625 77.1640625 C 101.03514862060547 77.984375 100.74217987060547 78.79297637939453 100.40624237060547 79.5859375 C 100.07030487060547 80.37891387939453 99.69921112060547 81.15232849121094 99.28905487060547 81.90624237060547 C 98.87890625 82.6640625 98.43358612060547 83.3984375 97.94921875 84.109375 C 97.46874237060547 84.8203125 96.94921112060547 85.5078125 96.40233612060547 86.16797637939453 C 95.8515625 86.83202362060547 95.26952362060547 87.46485137939453 94.65624237060547 88.06640625 C 94.04686737060547 88.67186737060547 93.40624237060547 89.24610137939453 92.73827362060547 89.78516387939453 Z M 92.73827362060547 89.78516387939453 "
                fill="rgb(22, 22, 22)" stroke="none" fill-rule="evenodd" stroke-width="1" stroke-linecap="butt"
                stroke-linejoin="miter" transform="matrix(1 0 0 1 0.00000166922 7.84502e-7)" class="" />
            <clipPath id="clip3" transform="matrix(1 0 0 1 -3.41061e-13 2.27374e-13)">
                <path
                    d="M 88.65625 93.08984375 C 87.125 94.33203125 85.484375 95.41015625 83.7421875 96.328125 C 81.99609375 97.24609375 80.1796875 97.984375 78.2890625 98.54296875 C 76.40234375 99.10546875 74.4765625 99.47265625 72.51171875 99.65625 C 70.55078125 99.8359375 68.58984375 99.8203125 66.62890625 99.6171875 C 64.66796875 99.41015625 62.74609375 99.015625 60.867191314697266 98.4296875 C 58.984371185302734 97.84765625 57.175785064697266 97.08203125 55.445308685302734 96.14453125 C 53.7109375 95.203125 52.08984375 94.1015625 50.57421875 92.84375 C 49.05859375 91.58203125 47.6796875 90.1875 46.44140625 88.65625 C 45.19921875 87.125 44.12109375 85.484375 43.203125 83.7421875 C 42.28515625 81.99609375 41.546875 80.1796875 40.98828125 78.2890625 C 40.4296875 76.40234375 40.05859375 74.4765625 39.87890625 72.51171875 C 39.69921875 70.55078125 39.7109375 68.58984375 39.91796875 66.62890625 C 40.12109375 64.66796875 40.515625 62.74609375 41.1015625 60.8671875 C 41.6875 58.984375 42.44921875 57.17578125 43.390625 55.4453125 C 44.328125 53.7109375 45.4296875 52.08984375 46.69140625 50.57421875 C 47.94921875 49.05859375 49.34765625 47.6796875 50.87890625 46.44140625 C 52.41015625 45.19921875 54.046875 44.12109375 55.79296875 43.203125 C 57.53515625 42.28515625 59.3515625 41.546875 61.242191314697266 40.98828125 C 63.1328125 40.4296875 65.05859375 40.05859375 67.01953125 39.87890625 C 68.98046875 39.69921875 70.9453125 39.7109375 72.90234375 39.91796875 C 74.86328125 40.12109375 76.78515625 40.515625 78.66796875 41.1015625 C 80.546875 41.6875 82.35546875 42.44921875 84.0859375 43.390625 C 85.8203125 44.328125 87.44140625 45.4296875 88.95703125 46.69140625 C 90.47265625 47.94921875 91.8515625 49.34765625 93.08984375 50.87890625 C 94.33203125 52.41015625 95.41015625 54.046875 96.328125 55.7890625 C 97.24609375 57.53515625 97.984375 59.3515625 98.54296875 61.2421875 C 99.10546875 63.1328125 99.47265625 65.05859375 99.65625 67.01953125 C 99.8359375 68.98046875 99.8203125 70.9453125 99.6171875 72.90234375 C 99.41015625 74.86328125 99.015625 76.78515625 98.4296875 78.66796875 C 97.84765625 80.546875 97.08203125 82.35546875 96.14453125 84.0859375 C 95.203125 85.8203125 94.1015625 87.44140625 92.84375 88.95703125 C 91.58203125 90.47265625 90.1875 91.8515625 88.65625 93.08984375 Z M 88.65625 93.08984375 "
                    stroke-width="0.9999999999999999" stroke-linecap="butt" stroke-linejoin="miter" class=""
                    transform="matrix(1 0 0 1 0 0)" />
            </clipPath>
        </g>
        <clipPath id="clip2" transform="matrix(1 0 0 1 0.0000059355 -0.00000888563)">
            <path d="M 39 39 L 100 39 L 100 100 L 39 100 L 39 39 Z M 39 39 " stroke-width="0.9999999999999999"
                stroke-linecap="butt" stroke-linejoin="miter" class="" transform="matrix(1 0 0 1 0 0)" />
        </clipPath>
    </g>
</svg>