<?xml version="1.0" encoding="iso-8859-1"?>
<!-- Generator: Adobe Illustrator 19.0.0, SVG Export Plug-In . SVG Version: 6.00 Build 0)  -->
<svg version="1.1" id="Capa_1" xmlns="http://www.w3.org/2000/svg" xmlns:xlink="http://www.w3.org/1999/xlink" x="0px" y="0px"
	 viewBox="0 0 385.6 385.6" style="enable-background:new 0 0 385.6 385.6;" xml:space="preserve">
<g>
	<g>
		<path d="M352.84,172.502c-0.653-0.55-1.424-0.941-2.254-1.142l0.08,0.04l-12-2.96l-6.52-10.56
			c-1.581-2.607-4.975-3.439-7.582-1.858c-0.76,0.461-1.397,1.098-1.858,1.858l-6.56,10.64l-12,2.88
			c-2.991,0.588-4.939,3.49-4.351,6.482c0.176,0.895,0.572,1.733,1.151,2.438l8,9.52l-0.92,12.44
			c-0.228,3.04,2.051,5.69,5.091,5.918c0.856,0.064,1.715-0.072,2.509-0.398l11.56-4.72l11.24,4.6
			c2.718,1.381,6.041,0.298,7.422-2.42c0.467-0.92,0.668-1.952,0.578-2.98l-0.92-12.48l8-9.52
			C355.47,177.948,355.172,174.466,352.84,172.502z M335.626,184.44c-0.937,1.113-1.397,2.55-1.28,4l0.44,5.8l-5.36-2.2
			c-1.286-0.504-2.714-0.504-4,0l-5.32,2.2l0.44-5.8c0.073-1.472-0.445-2.912-1.44-4l-3.6-4.28l5.44-1.52
			c1.469-0.35,2.728-1.291,3.48-2.6l2.96-4.8l3.08,4.96c0.761,1.243,1.984,2.135,3.4,2.48l5.64,1.36L335.626,184.44z"/>
	</g>
</g>
<g>
	<g>
		<path d="M338.464,341.102c-0.917-1.37-2.397-2.258-4.037-2.422h-0.68c-100.339,0.092-181.754-81.175-181.846-181.514
			c-0.053-58.178,27.759-112.862,74.806-147.086c2.518-1.718,3.167-5.152,1.449-7.671c-1.03-1.51-2.741-2.412-4.569-2.409
			C117.106,0.005,30.791,86.329,30.796,192.81c0.005,106.48,86.329,192.796,192.81,192.79c40.723-0.002,80.399-12.898,113.341-36.84
			C339.48,347.064,340.159,343.636,338.464,341.102z M67.464,285.972C15.987,199.818,44.098,88.246,130.252,36.769
			c23.36-13.957,49.556-22.49,76.654-24.969c-18.559,16.221-33.847,35.839-45.04,57.8v0
			c-48.119,94.987-10.125,210.999,84.862,259.118c21.829,11.059,45.565,17.86,69.938,20.042
			C230.512,400.237,118.941,372.126,67.464,285.972z"/>
	</g>
</g>
<g>
	<g>
		<path d="M276.72,226.302c-0.653-0.55-1.424-0.941-2.254-1.142l-0.16-0.04l-15.68-4l-8.44-13.64
			c-1.581-2.607-4.975-3.439-7.582-1.858c-0.76,0.461-1.397,1.098-1.858,1.858l-8.48,13.72l-15.32,3.88
			c-2.994,0.576-4.954,3.469-4.378,6.463c0.18,0.937,0.6,1.811,1.218,2.537l10.44,12.32l-1.2,16c-0.228,3.04,2.051,5.69,5.091,5.918
			c0.856,0.064,1.715-0.072,2.509-0.398l14.92-6.12l14.6,6c2.718,1.381,6.041,0.298,7.422-2.42c0.467-0.92,0.668-1.952,0.578-2.98
			l-1.2-16l10.44-12.32C279.35,231.748,279.052,228.266,276.72,226.302z M256.906,241.12c-0.937,1.113-1.397,2.55-1.28,4l0.72,9.44
			l-8.76-3.6c-1.286-0.504-2.714-0.504-4,0l-8.72,3.56l0.44-9.76c0.073-1.472-0.445-2.912-1.44-4l-5.96-7.04l9.2-2.24
			c1.475-0.388,2.722-1.374,3.44-2.72l4.88-8l4.96,8c0.761,1.243,1.984,2.135,3.4,2.48l9.2,2.24L256.906,241.12z"/>
	</g>
</g>
<g>
	<g>
		<path d="M301.96,79.582c-0.653-0.55-1.424-0.941-2.254-1.142l-0.28-0.04l-26.72-6.52l-14.4-23.12
			c-1.581-2.607-4.975-3.439-7.582-1.858c-0.76,0.461-1.397,1.098-1.858,1.858l-14.48,23.4l-26.48,6.2
			c-2.974,0.669-4.843,3.623-4.173,6.597c0.2,0.889,0.617,1.714,1.213,2.403l17.8,21l-2.04,27.44
			c-0.228,3.04,2.051,5.69,5.091,5.918c0.856,0.064,1.715-0.072,2.509-0.398l25.44-10.44l25.12,10.32
			c2.718,1.381,6.041,0.298,7.422-2.42c0.467-0.92,0.668-1.952,0.578-2.98l-2.04-27.44l17.8-21
			C304.59,85.028,304.292,81.546,301.96,79.582z M274.666,102.92c-0.937,1.113-1.397,2.55-1.28,4l1.56,20.8l-19.28-8
			c-1.286-0.5-2.714-0.5-4,0l-19.24,8l1.56-20.8c0.073-1.472-0.445-2.912-1.44-4l-13.6-15.88l20.24-4.92
			c1.467-0.355,2.724-1.294,3.48-2.6l10.88-17.6l10.96,17.72c0.761,1.243,1.984,2.135,3.4,2.48l20.24,4.92L274.666,102.92z"/>
	</g>
</g>
<g>
</g>
<g>
</g>
<g>
</g>
<g>
</g>
<g>
</g>
<g>
</g>
<g>
</g>
<g>
</g>
<g>
</g>
<g>
</g>
<g>
</g>
<g>
</g>
<g>
</g>
<g>
</g>
<g>
</g>
</svg>
