<svg id="Capa_1" enable-background="new 0 0 512 512" height="512" viewBox="0 0 512 512" width="512" xmlns="http://www.w3.org/2000/svg"><g><path d="m227.699 76.219 27.205 13.8 13.775 27.208c.887 1.749 3.585 7.07 9.443 7.071 5.862 0 8.572-5.344 9.463-7.1l13.772-27.177 27.178-13.773c1.755-.89 7.098-3.6 7.098-9.462 0-5.858-5.322-8.556-7.074-9.446l-27.203-13.772-13.799-27.205c-.889-1.752-3.593-7.084-9.439-7.084s-8.55 5.333-9.44 7.089l-13.773 27.202-27.206 13.774c-1.752.889-7.084 3.593-7.083 9.439 0 5.845 5.332 8.548 7.083 9.436zm36.174-20.377c1.425-.722 2.582-1.879 3.304-3.304l10.944-21.617 10.966 21.621c.722 1.423 1.878 2.578 3.301 3.299l21.627 10.949-21.629 10.961c-1.423.722-2.579 1.877-3.3 3.3l-10.961 21.629-10.948-21.626c-.721-1.423-1.876-2.579-3.298-3.301l-21.621-10.968z"/><path d="m51.809 176.698c.887 1.748 3.585 7.07 9.429 7.07 5.848-.001 8.557-5.344 9.446-7.095l13.801-27.183 27.178-13.8c1.756-.89 7.098-3.599 7.099-9.447.001-5.844-5.321-8.543-7.069-9.429l-27.207-13.8-13.8-27.207c-.887-1.749-3.585-7.07-9.429-7.071-5.847 0-8.557 5.344-9.446 7.095l-13.801 27.183-27.179 13.799c-1.756.891-7.099 3.6-7.098 9.449 0 5.845 5.323 8.542 7.069 9.427l27.207 13.801zm-4.826-61.419c1.418-.721 2.572-1.873 3.292-3.292l10.977-21.621 10.965 21.618c.721 1.421 1.875 2.575 3.296 3.296l21.618 10.965-21.621 10.978c-1.419.721-2.572 1.873-3.292 3.292l-10.977 21.621-10.965-21.618c-.721-1.421-1.875-2.575-3.296-3.296l-21.618-10.966z"/><path d="m460.39 404.423c-2.979-10.135-9.375-18.78-17.753-24.719 80.561-96.683 74.615-239.637-15.168-329.423-18.086-18.086-38.717-33.138-61.319-44.738-9.528-4.89-19.098-8.527-24.556-2.068-5.421 6.412-.376 15.051 5.884 23.435 34.187 45.735 47.893 104.359 37.603 160.841-.743 4.074 1.959 7.979 6.034 8.722 4.073.732 7.98-1.96 8.722-6.035 10.906-59.866-3.334-121.989-39.077-170.794 20.641 10.781 39.51 24.652 56.102 41.243 85.166 85.169 89.982 221.304 11.839 312.077-4.071-1.183-8.349-1.82-12.744-1.82-2.087 0-4.16.137-6.204.409-9.679-17.791-28.268-28.982-48.927-28.982-18.135 0-35.223 8.963-45.588 23.656-23.058 1.017-41.505 20.094-41.505 43.399 0 2.265.173 4.52.516 6.745-10.583 9.34-17.176 22.531-18.318 36.616-61.175.385-120.551-23.909-163.903-67.264-16.609-16.583-30.479-35.441-41.241-56.073 41.991 30.741 93.736 45.696 145.969 42.154 53.458-3.631 103.795-26.519 141.741-64.452 22.677-22.705 39.83-49.355 50.983-79.209 1.449-3.88-.521-8.201-4.401-9.65-3.879-1.45-8.201.52-9.651 4.4-10.398 27.832-26.394 52.682-47.541 73.854-72.197 72.174-188.201 80.608-269.829 19.625-8.378-6.273-17.016-11.332-23.433-5.915-6.463 5.453-2.83 15.036 2.06 24.579 11.582 22.596 26.635 43.22 44.739 61.295 24.499 24.501 53.193 43.162 85.283 55.466 28.087 10.768 57.494 16.209 87.55 16.208.839 0 1.681-.015 2.521-.023 4.961 25.06 27.114 44.016 53.621 44.016h27.636c4.142 0 7.5-3.357 7.5-7.5s-3.358-7.5-7.5-7.5h-27.636c-21.872 0-39.667-17.782-39.667-39.639 0-12.597 6.068-24.555 16.23-31.987 2.515-1.839 3.63-5.041 2.804-8.044-.687-2.496-1.035-5.088-1.035-7.704 0-15.683 12.759-28.443 28.442-28.443.609 0 1.218.026 1.827.051 2.736.09 5.348-1.301 6.753-3.674 7.299-12.33 20.738-19.99 35.072-19.99 16.652 0 31.461 9.939 37.727 25.321 1.438 3.53 5.294 5.422 8.966 4.392 2.706-.757 5.545-1.141 8.439-1.141 15.358 0 28.657 11.416 30.935 26.555.552 3.67 3.705 6.384 7.416 6.384 21.482 0 38.958 17.477 38.958 38.96 0 21.482-17.477 38.959-38.958 38.959h-81.634c-4.142 0-7.5 3.357-7.5 7.5s3.358 7.5 7.5 7.5h81.634c29.753 0 53.958-24.205 53.958-53.958.002-27.696-20.975-50.587-47.876-53.617z"/><path d="m112.705 241.025c0 20.735 16.855 37.603 37.574 37.603h97.763c29.018 0 52.625-23.609 52.625-52.627s-23.608-52.626-52.625-52.626c-.182 0-.362.001-.541.003-10.663-18.426-30.583-30.078-52.096-30.078-33.16 0-60.137 26.978-60.137 60.139 0 1.03.026 2.063.08 3.097-13.604 5.849-22.643 19.225-22.643 34.489zm32.427-21.98c3.824-.896 6.308-4.592 5.696-8.471-.372-2.353-.56-4.754-.56-7.136 0-24.89 20.248-45.139 45.137-45.139 17.457 0 33.516 10.219 40.911 26.035 1.375 2.94 4.481 4.657 7.707 4.267 1.247-.153 2.561-.228 4.018-.228 20.747 0 37.626 16.879 37.626 37.627s-16.879 37.628-37.626 37.628h-97.763c-12.448 0-22.575-10.14-22.575-22.604.002-10.534 7.168-19.572 17.429-21.979z"/></g></svg>